<svg xmlns="http://www.w3.org/2000/svg" viewBox="0 0 380 380">
  <!-- GitLab Tanuki logo simplified -->
  <path d="M190 340.1L253.8 149H126.2L190 340.1z" fill="#E24329"/>
  <path d="M190 340.1L126.2 149H40.7L190 340.1z" fill="#FC6D26"/>
  <path d="M40.7 149L19.4 214.4a13.7 13.7 0 005.1 15.5L190 340.1 40.7 149z" fill="#FCA326"/>
  <path d="M40.7 149h85.5L91.5 39.8c-1.7-5.3-9.3-5.3-11 0L40.7 149z" fill="#E24329"/>
  <path d="M190 340.1L253.8 149H339.3L190 340.1z" fill="#FC6D26"/>
  <path d="M339.3 149l21.3 65.4a13.7 13.7 0 01-5.1 15.5L190 340.1 339.3 149z" fill="#FCA326"/>
  <path d="M339.3 149h-85.5l34.7-109.2c1.7-5.3 9.3-5.3 11 0L339.3 149z" fill="#E24329"/>
</svg>
